<svg xmlns="http://www.w3.org/2000/svg" viewBox="0 0 256 256" role="img" aria-label="Quiz Platform">
  <defs>
    <linearGradient id="qp-gradient" x1="0" y1="0" x2="1" y2="1">
      <stop offset="0" stop-color="#0ea5e9"/>
      <stop offset="1" stop-color="#22c55e"/>
    </linearGradient>
    <linearGradient id="qp-card" x1="0" y1="0" x2="0" y2="1">
      <stop offset="0" stop-color="#ffffff"/>
      <stop offset="1" stop-color="#f8fafc"/>
    </linearGradient>
  </defs>
  <rect x="20" y="20" width="216" height="216" rx="48" fill="url(#qp-gradient)"/>
  <rect x="52" y="52" width="152" height="152" rx="28" fill="url(#qp-card)"/>
  <rect x="68" y="72" width="120" height="20" rx="10" fill="#e2e8f0"/>
  <rect x="68" y="104" width="80" height="14" rx="7" fill="#cbd5f5"/>
  <rect x="68" y="128" width="96" height="14" rx="7" fill="#dbeafe"/>
  <rect x="68" y="152" width="64" height="14" rx="7" fill="#dbeafe"/>
  <circle cx="168" cy="140" r="26" fill="#0f172a"/>
  <path d="M168 124c-8 0-14 4-14 10h10c0-2 2-4 4-4 3 0 5 2 5 5 0 4-4 6-8 9-2 1-3 3-3 6h10c0-2 2-3 4-5 4-3 8-6 8-12 0-6-6-9-16-9z" fill="#ffffff"/>
  <circle cx="168" cy="160" r="4" fill="#ffffff"/>
  <path d="M84 112l6 6 12-12" fill="none" stroke="#22c55e" stroke-width="6" stroke-linecap="round" stroke-linejoin="round"/>
</svg>
